<?xml version="1.0" encoding="UTF-8"?>
<svg width="175px" height="175px" viewBox="0 0 175 175" version="1.1" xmlns="http://www.w3.org/2000/svg" xmlns:xlink="http://www.w3.org/1999/xlink">
    <!-- Generator: Sketch 56.3 (81716) - https://sketch.com -->
    <title>delete-button</title>
    <desc>Created with Sketch.</desc>
    <g id="fjot-Desktop" stroke="none" stroke-width="1" fill="none" fill-rule="evenodd">
        <g id="D-Login-v0.0.1" transform="translate(-73.000000, -282.000000)" fill="#0F1741" fill-rule="nonzero">
            <g id="delete-button" transform="translate(73.000000, 282.000000)">
                <path d="M87.12,0 C39.082,0 0,39.082 0,87.12 C0,135.158 39.082,174.24 87.12,174.24 C135.158,174.24 174.24,135.158 174.24,87.12 C174.24,39.082 135.157,0 87.12,0 Z M87.12,159.305 C47.318,159.305 14.935,126.922 14.935,87.12 C14.935,47.318 47.318,14.935 87.12,14.935 C126.922,14.935 159.305,47.318 159.305,87.12 C159.305,126.922 126.921,159.305 87.12,159.305 Z" id="Shape"></path>
                <path d="M120.83,53.414 C117.913,50.497 113.183,50.497 110.271,53.414 L87.12,76.568 L63.969,53.414 C61.052,50.497 56.327,50.497 53.41,53.414 C50.493,56.331 50.493,61.056 53.41,63.973 L76.561,87.126 L53.409,110.28 C50.492,113.197 50.492,117.922 53.409,120.839 C54.867,122.297 56.778,123.027 58.689,123.027 C60.6,123.027 62.513,122.298 63.969,120.839 L87.12,97.686 L110.271,120.839 C111.729,122.297 113.64,123.027 115.551,123.027 C117.462,123.027 119.372,122.298 120.831,120.839 C123.748,117.922 123.748,113.197 120.831,110.28 L97.679,87.127 L120.83,63.974 C123.747,61.057 123.747,56.331 120.83,53.414 Z" id="Path"></path>
            </g>
        </g>
    </g>
</svg>