<?xml version="1.0" encoding="utf-8"?>
<svg version="1.1" xmlns:xlink="http://www.w3.org/1999/xlink" width="18px" height="14px" xmlns="http://www.w3.org/2000/svg">
  <g transform="matrix(1 0 0 1 -115 -130 )">
    <path d="M 17.77734375 11.4078125  C 17.92578125 11.5463541666667  18 11.7104166666667  18 11.9  L 18 13.3  C 18 13.4895833333333  17.92578125 13.6536458333333  17.77734375 13.7921875  C 17.62890625 13.9307291666667  17.453125 14  17.25 14  L 0.75 14  C 0.546875 14  0.37109375 13.9307291666667  0.22265625 13.7921875  C 0.07421875 13.6536458333333  0 13.4895833333333  0 13.3  L 0 11.9  C 0 11.7104166666667  0.07421875 11.5463541666667  0.22265625 11.4078125  C 0.37109375 11.2692708333333  0.546875 11.2  0.75 11  L 17.25 11  C 17.453125 11.2  17.62890625 11.2692708333333  17.77734375 11.4078125  Z M 17.77734375 5.8078125  C 17.92578125 5.94635416666667  18 6.11041666666667  18 6.3  L 18 7.7  C 18 7.88958333333333  17.92578125 8.05364583333333  17.77734375 8.1921875  C 17.62890625 8.33072916666667  17.453125 8.4  17.25 8.4  L 0.75 8.4  C 0.546875 8.4  0.37109375 8.33072916666667  0.22265625 8.1921875  C 0.07421875 8.05364583333333  0 7.88958333333333  0 7.7  L 0 6.3  C 0 6.11041666666667  0.07421875 5.94635416666667  0.22265625 5.8078125  C 0.37109375 5.66927083333333  0.546875 5.6  0.75 5.6  L 17.25 5.6  C 17.453125 5.6  17.62890625 5.66927083333333  17.77734375 5.8078125  Z M 17.77734375 0.207812500000001  C 17.92578125 0.346354166666666  18 0.510416666666666  18 0.700000000000001  L 18 2.1  C 18 2.28958333333333  17.92578125 2.45364583333333  17.77734375 2.5921875  C 17.62890625 2.73072916666667  17.453125 2.8  17.25 3  L 0.75 3  C 0.546875 2.8  0.37109375 2.73072916666667  0.22265625 2.5921875  C 0.07421875 2.45364583333333  0 2.28958333333333  0 2.1  L 0 0.700000000000001  C 0 0.510416666666666  0.07421875 0.346354166666666  0.22265625 0.207812500000001  C 0.37109375 0.0692708333333325  0.546875 0  0.75 0  L 17.25 0  C 17.453125 0  17.62890625 0.0692708333333325  17.77734375 0.207812500000001  Z " fill-rule="nonzero" fill="#555555" stroke="none" transform="matrix(1 0 0 1 115 130 )" />
  </g>
</svg>